<?xml version="1.0" encoding="UTF-8" standalone="no"?>
<!-- Created with Inkscape (http://www.inkscape.org/) -->

<svg
   xmlns:dc="http://purl.org/dc/elements/1.1/"
   xmlns:cc="http://creativecommons.org/ns#"
   xmlns:rdf="http://www.w3.org/1999/02/22-rdf-syntax-ns#"
   xmlns:svg="http://www.w3.org/2000/svg"
   xmlns="http://www.w3.org/2000/svg"
   xmlns:sodipodi="http://sodipodi.sourceforge.net/DTD/sodipodi-0.dtd"
   xmlns:inkscape="http://www.inkscape.org/namespaces/inkscape"
   width="1488.189"
   height="1052.3622"
   id="svg2"
   version="1.1"
   inkscape:version="0.48.4 r9939"
   sodipodi:docname="splash.svg"
   inkscape:export-filename="/home/slacker/Programming/C++/EclipseWorkspace/Catharsis/Resources/splash.png"
   inkscape:export-xdpi="151.14255"
   inkscape:export-ydpi="151.14255">
  <defs
     id="defs4">
    <inkscape:perspective
       sodipodi:type="inkscape:persp3d"
       inkscape:vp_x="-28.242199 : 433.96973 : 1"
       inkscape:vp_y="0 : 635.29975 : 0"
       inkscape:vp_z="1512.1812 : 433.96973 : 1"
       inkscape:persp3d-origin="741.96951 : 211.11458 : 1"
       id="perspective3010" />
  </defs>
  <sodipodi:namedview
     id="base"
     pagecolor="#ffffff"
     bordercolor="#666666"
     borderopacity="1.0"
     inkscape:pageopacity="0.0"
     inkscape:pageshadow="2"
     inkscape:zoom="0.24748737"
     inkscape:cx="890.32803"
     inkscape:cy="824.39728"
     inkscape:document-units="px"
     inkscape:current-layer="layer1"
     showgrid="false"
     width="2104.72px"
     inkscape:window-width="1366"
     inkscape:window-height="743"
     inkscape:window-x="0"
     inkscape:window-y="0"
     inkscape:window-maximized="1" />
  <metadata
     id="metadata7">
    <rdf:RDF>
      <cc:Work
         rdf:about="">
        <dc:format>image/svg+xml</dc:format>
        <dc:type
           rdf:resource="http://purl.org/dc/dcmitype/StillImage" />
        <dc:title></dc:title>
      </cc:Work>
    </rdf:RDF>
  </metadata>
  <g
     inkscape:label="Layer 1"
     inkscape:groupmode="layer"
     id="layer1"
     transform="translate(0,1.7988066e-4)">
    <text
       xml:space="preserve"
       style="font-size:104.15628052px;font-style:normal;font-weight:normal;line-height:125%;letter-spacing:0px;word-spacing:0px;fill:#008000;fill-opacity:1;stroke:none;font-family:Sans"
       x="11.580129"
       y="156.43541"
       id="text2985"
       sodipodi:linespacing="125%"
       transform="scale(0.5810484,1.721027)"><tspan
         sodipodi:role="line"
         id="tspan2987"
         x="11.580129"
         y="156.43541">Some super cool game screen for our cool game</tspan><tspan
         sodipodi:role="line"
         x="11.580129"
         y="286.63074"
         id="tspan2989" /></text>
    <g
       sodipodi:type="inkscape:box3d"
       style="fill:#008000"
       id="g3012"
       inkscape:perspectiveID="#perspective3010"
       inkscape:corner0="2.0474912 : 1.0964282 : 0 : 1"
       inkscape:corner7="0.66853591 : 0.33429431 : 0.25 : 1">
      <path
         sodipodi:type="inkscape:box3dside"
         id="path3022"
         style="fill:#afafde;fill-rule:evenodd;stroke:none"
         inkscape:box3dsidetype="13"
         d="m 224.49412,621.83053 208.87299,2.84153 140.57778,-0.8183 -251.8245,-2.2839 z" />
      <path
         sodipodi:type="inkscape:box3dside"
         id="path3014"
         style="fill:#353564;fill-rule:evenodd;stroke:none"
         inkscape:box3dsidetype="6"
         d="m 224.49412,462.95116 0,158.87937 97.62627,-0.26067 0,-146.8339 z" />
      <path
         sodipodi:type="inkscape:box3dside"
         id="path3024"
         style="fill:#e9e9ff;fill-rule:evenodd;stroke:none"
         inkscape:box3dsidetype="11"
         d="m 322.12039,474.73596 251.8245,-103.25354 0,252.37134 -251.8245,-2.2839 z" />
      <path
         sodipodi:type="inkscape:box3dside"
         id="path3016"
         style="fill:#4d4d9f;fill-rule:evenodd;stroke:none"
         inkscape:box3dsidetype="5"
         d="M 224.49412,462.95116 433.36711,334.48744 573.94489,371.48242 322.12039,474.73596 z" />
      <path
         sodipodi:type="inkscape:box3dside"
         id="path3020"
         style="fill:#d7d7ff;fill-rule:evenodd;stroke:none"
         inkscape:box3dsidetype="14"
         d="m 433.36711,334.48744 0,290.18462 140.57778,-0.8183 0,-252.37134 z" />
      <path
         sodipodi:type="inkscape:box3dside"
         id="path3018"
         style="fill:#8686bf;fill-rule:evenodd;stroke:none"
         inkscape:box3dsidetype="3"
         d="m 224.49412,462.95116 208.87299,-128.46372 0,290.18462 -208.87299,-2.84153 z" />
    </g>
    <path
       sodipodi:type="arc"
       style="fill:#ff8080"
       id="path3032"
       sodipodi:cx="2185.9702"
       sodipodi:cy="1294.582"
       sodipodi:rx="347.49246"
       sodipodi:ry="345.47217"
       d="m 2533.4627,1294.582 a 347.49246,345.47217 0 1 1 -694.9849,0 347.49246,345.47217 0 1 1 694.9849,0 z"
       transform="matrix(0.51693428,0,0,0.63529975,-28.242199,-50.173105)" />
    <text
       xml:space="preserve"
       style="font-size:22.92276573px;font-style:normal;font-weight:normal;line-height:125%;letter-spacing:0px;word-spacing:0px;fill:#000000;fill-opacity:1;stroke:none;font-family:Sans"
       x="1080.1545"
       y="480.12274"
       id="text3036"
       sodipodi:linespacing="125%"
       transform="scale(0.90204524,1.1085919)"><tspan
         sodipodi:role="line"
         id="tspan3038"
         x="1080.1545"
         y="480.12274">Yea, cool shapes and stuff!!</tspan><tspan
         sodipodi:role="line"
         x="1080.1545"
         y="508.77621"
         id="tspan3040" /></text>
    <path
       sodipodi:type="arc"
       style="fill:#000000"
       id="path3042"
       sodipodi:cx="2036.4675"
       sodipodi:cy="1165.2825"
       sodipodi:rx="64.649765"
       sodipodi:ry="62.629459"
       d="m 2101.1173,1165.2825 a 64.649765,62.629459 0 1 1 -129.2995,0 64.649765,62.629459 0 1 1 129.2995,0 z"
       transform="matrix(0.51693428,0,0,0.63529975,-28.242199,-50.173105)" />
    <path
       sodipodi:type="arc"
       style="fill:#000000"
       id="path3044"
       sodipodi:cx="2343.554"
       sodipodi:cy="1173.3638"
       sodipodi:rx="76.771591"
       sodipodi:ry="58.588848"
       d="m 2420.3255,1173.3638 a 76.771591,58.588848 0 1 1 -153.5431,0 76.771591,58.588848 0 1 1 153.5431,0 z"
       transform="matrix(0.51693428,0,0,0.63529975,-28.242199,-50.173105)" />
    <path
       style="fill:#000000"
       id="path3050"
       d="m 1015.7203,804.48021 c 2.7571,6.49493 5.4335,13.01755 7.9533,19.65535 1.8089,4.86665 3.7646,9.76303 6.2115,14.20276 2.1685,3.89756 4.0281,8.19734 6.9431,11.33223 3.1083,3.77615 6.1176,7.67366 9.1729,11.51448 3.2176,3.44497 6.336,7.00018 9.6167,10.35532 3.249,3.63138 7.1771,6.10619 10.7818,9.13683 3.8324,2.82085 7.8598,5.17737 12.2038,6.49879 4.684,2.08957 9.3702,3.9489 14.2803,5.03158 5.357,1.7756 10.8281,2.8314 16.3505,3.38233 4.3433,0.34681 8.6981,0.32718 13.0484,0.32451 4.1684,-0.0121 8.3367,-0.0255 12.5051,-0.033 3.6771,-0.15938 7.2171,-1.58856 10.901,-2.09617 4.0671,0.0801 7.9324,-1.04639 11.903,-1.909 4.6144,-1.68533 9.07,-3.87215 13.567,-5.9567 5.1697,-2.69685 10.1811,-5.6907 14.9948,-9.2574 -44.405,34.54594 -21.8278,14.62695 -11.5518,6.65603 3.9004,-3.05292 7.7139,-6.2617 11.4629,-9.58718 3.2929,-2.81761 6.474,-5.76382 9.3225,-9.24018 2.9528,-3.99806 5.5068,-8.40895 8.2472,-12.622 2.6123,-4.06713 4.7406,-8.54066 7.1907,-12.7607 1.5242,-2.69303 0.7725,-1.33908 2.2556,-4.06166 0,0 28.4183,-15.05164 28.4183,-15.05164 l 0,0 c -1.6774,2.45143 -0.9036,1.11704 -2.293,4.02836 -2.5653,4.22259 -4.9627,8.48323 -7.1452,13.01272 -2.9285,4.09775 -5.4715,8.49003 -8.1286,12.84888 -2.7731,3.69153 -5.6066,7.25187 -9.1713,9.79696 -3.66,3.58931 -7.5687,6.71168 -11.4428,9.92217 -13.5446,10.58904 -26.2133,22.48363 -41.0193,30.79462 -4.9765,3.36723 -10.0998,6.35612 -15.3978,8.8876 -4.5621,2.16523 -9.1894,4.25777 -13.9895,5.47101 -3.9875,0.91425 -7.989,1.29982 -12.0185,1.82064 -3.6902,0.76166 -7.3337,1.99331 -11.1154,1.64295 -4.1704,0.01 -8.341,0.0298 -12.5114,0.0153 -4.3934,-0.0375 -8.7946,-0.10084 -13.1681,-0.67062 -5.553,-0.81267 -11.0139,-2.2031 -16.4635,-3.73315 -4.9439,-1.32866 -9.7163,-3.30629 -14.53,-5.20875 -4.4754,-1.80356 -8.7263,-4.36026 -12.6875,-7.49661 -3.7644,-2.98839 -7.6919,-5.71699 -11.0417,-9.42136 -3.3343,-3.4272 -6.4182,-7.19459 -9.6602,-10.75068 -3.0738,-3.7813 -6.1423,-7.56941 -9.2352,-11.32707 -2.8734,-3.58144 -5.0793,-7.87524 -7.303,-12.08042 -2.4471,-4.67663 -4.53589,-9.67904 -6.28849,-14.8016 -2.46926,-6.61817 -4.93101,-13.24453 -8.10636,-19.41571 0,0 26.93825,-18.8503 26.93825,-18.8503 z"
       inkscape:connector-curvature="0" />
  </g>
</svg>
